<?xml version="1.0" encoding="utf-8"?>
<svg version="1.1" xmlns:xlink="http://www.w3.org/1999/xlink" width="23px" height="23px" xmlns="http://www.w3.org/2000/svg">
  <defs>
    <filter x="1195px" y="292px" width="23px" height="23px" filterUnits="userSpaceOnUse" id="filter31">
      <feOffset dx="1" dy="1" in="SourceAlpha" result="shadowOffsetInner" />
      <feGaussianBlur stdDeviation="2.5" in="shadowOffsetInner" result="shadowGaussian" />
      <feComposite in2="shadowGaussian" operator="atop" in="SourceAlpha" result="shadowComposite" />
      <feColorMatrix type="matrix" values="0 0 0 0 0  0 0 0 0 0  0 0 0 0 0  0 0 0 0.698039215686274 0  " in="shadowComposite" />
    </filter>
    <g id="widget32">
      <path d="M 1205.5 296  C 1209.14 296  1212 298.86  1212 302.5  C 1212 306.14  1209.14 309  1205.5 309  C 1201.86 309  1199 306.14  1199 302.5  C 1199 298.86  1201.86 296  1205.5 296  Z " fill-rule="nonzero" fill="#666666" stroke="none" />
      <path d="M 1205.5 296.5  C 1208.86 296.5  1211.5 299.14  1211.5 302.5  C 1211.5 305.86  1208.86 308.5  1205.5 308.5  C 1202.14 308.5  1199.5 305.86  1199.5 302.5  C 1199.5 299.14  1202.14 296.5  1205.5 296.5  Z " stroke-width="1" stroke="#666666" fill="none" />
    </g>
  </defs>
  <g transform="matrix(1 0 0 1 -1195 -292 )">
    <use xlink:href="#widget32" filter="url(#filter31)" />
    <use xlink:href="#widget32" />
  </g>
</svg>