<?xml version="1.0" encoding="utf-8"?>
<svg version="1.1" xmlns:xlink="http://www.w3.org/1999/xlink" width="20px" height="20px" xmlns="http://www.w3.org/2000/svg">
  <g transform="matrix(1 0 0 1 -1002 -1046 )">
    <path d="M 1012 1046  C 1017.6 1046  1022 1050.4  1022 1056  C 1022 1061.6  1017.6 1066  1012 1066  C 1006.4 1066  1002 1061.6  1002 1056  C 1002 1050.4  1006.4 1046  1012 1046  Z " fill-rule="nonzero" fill="#e4e4e4" stroke="none" />
    <path d="M 1012 1046.5  C 1017.32 1046.5  1021.5 1050.68  1021.5 1056  C 1021.5 1061.32  1017.32 1065.5  1012 1065.5  C 1006.68 1065.5  1002.5 1061.32  1002.5 1056  C 1002.5 1050.68  1006.68 1046.5  1012 1046.5  Z " stroke-width="1" stroke="#797979" fill="none" />
  </g>
</svg>