<?xml version="1.0" encoding="utf-8"?>
<svg version="1.1" xmlns:xlink="http://www.w3.org/1999/xlink" width="19px" height="34px" xmlns="http://www.w3.org/2000/svg">
  <g transform="matrix(1 0 0 1 -275 -699 )">
    <path d="M 18.3732638888889 15.505859375  C 18.791087962963 15.9264322916667  19 16.4244791666667  19 17  C 19 17.5755208333333  18.791087962963 18.0735677083333  18.3732638888889 18.494140625  L 3.59548611111111 33.369140625  C 3.17766203703704 33.7897135416667  2.68287037037037 34  2.11111111111111 34  C 1.53935185185185 34  1.04456018518519 33.7897135416667  0.626736111111111 33.369140625  C 0.208912037037037 32.9485677083333  0 32.4505208333333  0 31.875  L 0 2.125  C 0 1.54947916666666  0.208912037037037 1.05143229166666  0.626736111111111 0.630859375  C 1.04456018518519 0.210286458333331  1.53935185185185 0  2.11111111111111 0  C 2.68287037037037 0  3.17766203703704 0.210286458333331  3.59548611111111 0.630859375  L 18.3732638888889 15.505859375  Z " fill-rule="nonzero" fill="#000000" stroke="none" transform="matrix(1 0 0 1 275 699 )" />
  </g>
</svg>