<?xml version="1.0" encoding="utf-8"?>
<svg version="1.1" xmlns:xlink="http://www.w3.org/1999/xlink" width="86px" height="54px" xmlns="http://www.w3.org/2000/svg">
  <g transform="matrix(1 0 0 1 -53 -425 )">
    <path d="M 82.2375 30.0873579545455  C 84.7458333333334 32.7592329545455  86 35.8210227272727  86 39.2727272727273  C 86 43.3380681818182  84.3203125 46.8089488636364  80.9609375 49.6853693181818  C 77.6015625 52.5617897727273  73.5479166666667 54  68.8 54  L 20.0666666666667 54  C 14.5423611111111 54  9.81684027777778 52.3188920454545  5.89010416666667 48.9566761363636  C 1.96336805555556 45.5944602272727  0 41.5482954545455  0 36.8181818181818  C 0 33.4431818181818  1.06006944444444 30.3558238636364  3.18020833333333 27.5561079545455  C 5.30034722222222 24.7563920454545  8.09236111111111 22.6661931818182  11.55625 21.2855113636364  C 11.4965277777778 20.5696022727273  11.4666666666667 20.0198863636364  11.4666666666667 19.6363636363636  C 11.4666666666667 14.2159090909091  13.70625 9.58806818181819  18.1854166666667 5.75284090909091  C 22.6645833333333 1.91761363636364  28.0694444444445 0  34.4 0  C 39.1180555555556 0  43.3956597222222 1.125  47.2328125 3.375  C 51.0699652777778 5.62499999999999  53.8694444444444 8.56534090909091  55.63125 12.1960227272727  C 57.7215277777778 10.6107954545454  60.2 9.81818181818181  63.0666666666667 9.81818181818181  C 66.2319444444445 9.81818181818181  68.934375 10.7769886363636  71.1739583333333 12.6946022727273  C 73.4135416666667 14.6122159090909  74.5333333333333 16.9261363636364  74.5333333333333 19.6363636363636  C 74.5333333333333 21.5539772727273  73.9211805555556 23.3181818181818  72.696875 24.9289772727273  C 76.5489583333333 25.6960227272727  79.7291666666667 27.4154829545455  82.2375 30.0873579545455  Z " fill-rule="nonzero" fill="#ffffff" stroke="none" transform="matrix(1 0 0 1 53 425 )" />
  </g>
</svg>